<?xml version="1.0" standalone="no"?><!DOCTYPE svg PUBLIC "-//W3C//DTD SVG 1.1//EN" "http://www.w3.org/Graphics/SVG/1.1/DTD/svg11.dtd"><svg t="1716806753291" class="icon" viewBox="0 0 1024 1024" version="1.1" xmlns="http://www.w3.org/2000/svg" p-id="18302" xmlns:xlink="http://www.w3.org/1999/xlink" width="200" height="200"><path d="M902.8096 0H121.216A121.344 121.344 0 0 0 0 121.1904v781.6192A121.344 121.344 0 0 0 121.1904 1024h781.6192A121.344 121.344 0 0 0 1024 902.8096V121.216A121.344 121.344 0 0 0 902.8096 0zM121.216 60.0064h781.568a61.2608 61.2608 0 0 1 61.2096 61.184v78.0032H60.0064V121.216a61.2608 61.2608 0 0 1 61.184-61.2096z m781.568 903.9872H121.2416a61.2608 61.2608 0 0 1-61.2096-61.184v-643.584h903.9872v643.584a61.2608 61.2608 0 0 1-61.184 61.184z" fill="#153651" fill-opacity=".9" p-id="18303"></path><path d="M131.7376 159.5904h30.6176a30.0032 30.0032 0 1 0 0-59.9808H131.7376a30.0032 30.0032 0 0 0 0 59.9808zM242.7136 159.5904h30.6176a30.0032 30.0032 0 1 0 0-59.9808H242.688a30.0032 30.0032 0 0 0 0 59.9808zM353.4336 159.5904H384a30.0032 30.0032 0 0 0 0-59.9808h-30.592a30.0032 30.0032 0 0 0 0 59.9808z" fill="#153651" fill-opacity=".9" p-id="18304"></path><path d="M508.9792 347.776c-145.792 0-264.3968 118.6048-264.3968 264.4224 0 145.7664 118.6048 264.3968 264.3968 264.3968 145.8176 0 264.4224-118.6048 264.4224-264.3968 0-145.8176-118.6048-264.4224-264.4224-264.4224z m0 468.8128c-112.6912 0-204.416-91.6992-204.416-204.3904 0-112.7168 91.7248-204.416 204.416-204.416 112.7168 0 204.416 91.6992 204.416 204.416 0 112.6912-91.6992 204.3904-204.416 204.3904z" fill="#000000" p-id="18305"></path><path d="M596.48 524.6976a30.0032 30.0032 0 0 0-42.4448 0l-45.056 45.056-45.0304-45.056a30.0032 30.0032 0 0 0-42.4192 42.4448l45.056 45.056-45.056 45.0304a29.9776 29.9776 0 1 0 42.4192 42.4192l45.056-45.056 45.0304 45.056a29.9008 29.9008 0 0 0 42.4192 0c11.7248-11.6992 11.7248-30.72 0-42.4192l-45.056-45.056 45.056-45.056c11.7248-11.6992 11.7248-30.6944 0-42.4192z" fill="#000000" p-id="18306"></path></svg>